<?xml version="1.0" encoding="iso-8859-1"?>
<!-- Uploaded to: SVG Repo, www.svgrepo.com, Generator: SVG Repo Mixer Tools -->
<svg fill="#000000" version="1.1" id="Layer_1" xmlns="http://www.w3.org/2000/svg" xmlns:xlink="http://www.w3.org/1999/xlink" 
	 viewBox="0 0 496 496" xml:space="preserve">
<g>
	<g>
		<g>
			<path d="M472,32h-72V0H100.688L0,100.688V496h400V192h72c13.232,0,24-10.768,24-24V56C496,42.768,485.232,32,472,32z M96,27.312
				V96H27.312L96,27.312z M384,480H16V112h96V16h272v16H184c-13.232,0-24,10.768-24,24v112c0,13.232,10.768,24,24,24h200V480z
				 M480,168c0,4.416-3.592,8-8,8H184c-4.408,0-8-3.584-8-8V56c0-4.416,3.592-8,8-8h288c4.408,0,8,3.584,8,8V168z"/>
			<rect x="32" y="128" width="16" height="16"/>
			<rect x="64" y="128" width="16" height="16"/>
			<rect x="32" y="160" width="16" height="16"/>
			<path d="M280,64c-22.056,0-40,17.944-40,40v56h16v-24h48v24h16v-56C320,81.944,302.056,64,280,64z M304,120h-48v-16
				c0-13.232,10.768-24,24-24s24,10.768,24,24V120z"/>
			<polygon points="336,80 368,80 368,144 336,144 336,160 416,160 416,144 384,144 384,80 416,80 416,64 336,64 			"/>
			<path d="M168,208v24H96v-24H32v64h24v32H32v64h24v32H32v64h64v-24h72v24h64v-24h72v24h64v-64h-24v-32h24v-64h-24v-32h24v-64h-64
				v24h-72v-24H168z M184,224h32v32h-32V224z M96,248h72v24h24v32h-24v24H96v-24H72v-32h24V248z M216,320v32h-32v-32H216z M48,256
				v-32h32v32H48z M48,352v-32h32v32H48z M80,448H48v-32h32V448z M168,424H96v-24H72v-32h24v-24h72v24h24v32h-24V424z M216,448h-32
				v-32h32V448z M304,424h-72v-24h-24v-32h24v-24h72v24h24v32h-24V424z M352,416v32h-32v-32H352z M352,320v32h-32v-32H352z M320,224
				h32v32h-32V224z M304,248v24h24v32h-24v24h-72v-24h-24v-32h24v-24H304z"/>
		</g>
	</g>
</g>
</svg>